<svg
  xmlns="http://www.w3.org/2000/svg"
  width="24"
  height="24"
  viewBox="0 0 24 24"
>
  <!-- Lucide "bot" as a filled silhouette: GNOME recolors fill only, never stroke. -->
  <rect x="11" y="3" width="2" height="6" rx="1" />
  <rect x="7" y="3" width="6" height="2" rx="1" />
  <rect x="1" y="13" width="4" height="2" rx="1" />
  <rect x="19" y="13" width="4" height="2" rx="1" />
  <path
    fill-rule="evenodd"
    d="M6 7h12a3 3 0 0 1 3 3v8a3 3 0 0 1-3 3H6a3 3 0 0 1-3-3v-8a3 3 0 0 1 3-3zm2 6a1 1 0 0 1 2 0v2a1 1 0 0 1-2 0zm6 0a1 1 0 0 1 2 0v2a1 1 0 0 1-2 0z"
  />
</svg>
